<svg id="Calque_1" data-name="Calque 1" xmlns="http://www.w3.org/2000/svg" viewBox="0 0 688.97 217.25"><defs><style>.cls-1{fill:#f15a24;}</style></defs><path d="M15.94,100h67.6v20H60.34V240H39.14V120H15.94Z" transform="translate(-15.94 -24.79)"/><path d="M99.94,100h21.2V240H99.94Z" transform="translate(-15.94 -24.79)"/><path d="M151.74,232.83q-9.21-9.2-9.2-24v-77.6q0-14.79,9.2-24t24-9.2q14.79,0,24,9.2t9.2,24v16.4h-20.8v-16.4a13.44,13.44,0,0,0-3.4-9.6,12.56,12.56,0,0,0-17.6,0q-3.4,3.6-3.4,9.6v77.6q0,6,3.4,9.6a12.56,12.56,0,0,0,17.6,0,13.44,13.44,0,0,0,3.4-9.6v-20h20.8v20q0,14.8-9.2,24t-24,9.2Q160.94,242,151.74,232.83Z" transform="translate(-15.94 -24.79)"/><path d="M257.54,182.43l-8,15.4V240h-21.2V100h21.2v56.8l28-56.8h22.8l-29.8,59.4,32,80.6h-22.8Z" transform="translate(-15.94 -24.79)"/><path d="M318.34,100h60.2v20h-39v39h31v20h-31v41h39v20h-60.2Z" transform="translate(-15.94 -24.79)"/><path d="M389.54,100h67.6v20h-23.2V240h-21.2V120h-23.2Z" transform="translate(-15.94 -24.79)"/><path d="M484.94,237.63a30.8,30.8,0,0,1-12.1-12.2,36.21,36.21,0,0,1-4.3-17.8v-5l20.4-2.2v5.2q0,7.6,3.6,12t10,4.4q6.19,0,9.9-3.6t3.7-9.8a24.07,24.07,0,0,0-3.9-13q-3.9-6.19-15.5-17.2-15.6-14.79-21.3-24.6a41.79,41.79,0,0,1-5.7-21.4q0-15.8,8.6-25.1t23.6-9.3q15,0,23.6,9.4t8.6,25.2v3.6l-20.4,2.2v-4q0-8-3-12.2a9.93,9.93,0,0,0-8.6-4.2c-3.74,0-6.6,1.14-8.6,3.4s-3,5.6-3,10a22.79,22.79,0,0,0,4,12.7q4,6.1,15.4,17.5,15.6,15.6,21.3,25.1a39.88,39.88,0,0,1,5.7,20.9,36.32,36.32,0,0,1-4.3,17.8,30.87,30.87,0,0,1-12.1,12.2,38.2,38.2,0,0,1-35.6,0Z" transform="translate(-15.94 -24.79)"/><path class="cls-1" d="M680.76,69.24a23.63,23.63,0,0,1,17.15,6.82,23.86,23.86,0,0,1,0,33.77,23.27,23.27,0,0,1-17.15,7h-20.3v20.3a23.32,23.32,0,0,1-7,17.16,23.86,23.86,0,0,1-33.77,0,23.64,23.64,0,0,1-6.83-17.16v-20.3H592.21a22.13,22.13,0,0,1-16.8-7A23.51,23.51,0,0,1,568.76,93a23.38,23.38,0,0,1,6.65-17,22.45,22.45,0,0,1,16.8-6.82h20.65V48.58a23.89,23.89,0,0,1,40.6-17,22.73,22.73,0,0,1,7,17V69.24Z" transform="translate(-15.94 -24.79)"/></svg>